<svg width="52" height="59" viewBox="0 0 52 59" fill="none" xmlns="http://www.w3.org/2000/svg">
<rect x="2.25427" y="27.7678" width="34.8498" height="34.8498" transform="rotate(-45 2.25427 27.7678)" fill="url(#paint0_linear_3_82)"/>
<circle cx="16.8987" cy="16.5502" r="8.00637" transform="rotate(-45 16.8987 16.5502)" fill="url(#paint1_linear_3_82)"/>
<circle cx="45.0032" cy="40.4728" r="2.99031" transform="rotate(-45 45.0032 40.4728)" fill="url(#paint2_linear_3_82)"/>
<rect x="25.7889" y="36.2438" width="16.7279" height="16.7279" transform="rotate(-90 25.7889 36.2438)" fill="url(#paint3_linear_3_82)"/>
<rect y="19.8644" width="6.62147" height="6.62147" transform="rotate(-90 0 19.8644)" fill="url(#paint4_linear_3_82)"/>
<path d="M6.42472 46.7282L21.9848 31.1681L27.6802 52.4235L6.42472 46.7282Z" fill="url(#paint5_linear_3_82)"/>
<path d="M35.4255 9.29239L43.0968 1.62111L45.9047 12.1003L35.4255 9.29239Z" fill="#4029B5"/>
<defs>
<linearGradient id="paint0_linear_3_82" x1="19.6792" y1="27.7678" x2="19.6792" y2="62.6177" gradientUnits="userSpaceOnUse">
<stop stop-color="#7B61FF"/>
<stop offset="1" stop-color="#2103BA"/>
</linearGradient>
<linearGradient id="paint1_linear_3_82" x1="16.8987" y1="8.54386" x2="16.8987" y2="24.5566" gradientUnits="userSpaceOnUse">
<stop stop-color="#46E1C5"/>
<stop offset="1" stop-color="#00836B"/>
</linearGradient>
<linearGradient id="paint2_linear_3_82" x1="45.0032" y1="37.4825" x2="45.0032" y2="43.4631" gradientUnits="userSpaceOnUse">
<stop stop-color="#46E1C5"/>
<stop offset="1" stop-color="#00836B"/>
</linearGradient>
<linearGradient id="paint3_linear_3_82" x1="34.1528" y1="36.2438" x2="34.1528" y2="52.9718" gradientUnits="userSpaceOnUse">
<stop stop-color="#FFEC40"/>
<stop offset="1" stop-color="#FFB931"/>
</linearGradient>
<linearGradient id="paint4_linear_3_82" x1="3.31073" y1="19.8644" x2="3.31073" y2="26.4859" gradientUnits="userSpaceOnUse">
<stop stop-color="#FFC961"/>
<stop offset="1" stop-color="#FFE600"/>
</linearGradient>
<linearGradient id="paint5_linear_3_82" x1="6.42472" y1="46.7282" x2="25.9631" y2="41.4713" gradientUnits="userSpaceOnUse">
<stop stop-color="#4029B5"/>
<stop offset="1" stop-color="#130076"/>
</linearGradient>
</defs>
</svg>
